<svg id="Layer_1" data-name="Layer 1" xmlns="http://www.w3.org/2000/svg" viewBox="0 0 139 139"><defs><style>.cls-1{fill:#ec6b00;}</style></defs><title>Crash Icon_orange</title><path class="cls-1" d="M101,56.05c6.35-5.8,10.54-9.74,10.62-9.82l.06,0c6.68-6.69,7.82-16.42,2.56-21.69s-15-4.14-21.69,2.56l-.06.05c-.08.09-4,4.28-9.82,10.62L42.35,17.56a2.51,2.51,0,0,0-3,.41l-6.16,6.16a2.51,2.51,0,0,0,0,3.55h0l5.12,5.62,3.16,3.15L54.83,49.82l2.48,2.49,6.46,6.45q-1.65,1.88-3.28,3.78C54.25,69.76,49,76.09,44.78,81.46l-20.5-5a2.51,2.51,0,0,0-2.6.93L17.4,83a2.51,2.51,0,0,0,.23,3.29,2.79,2.79,0,0,0,.32.28l15.65,11c-2.1,4.07-2.18,6.46-.56,8.07s4,1.54,8.07-.56l11,15.65a2.79,2.79,0,0,0,.28.32,2.51,2.51,0,0,0,3.29.22L61.33,117a2.52,2.52,0,0,0,.92-2.61l-5-20.5c5.37-4.21,11.7-9.47,18.92-15.7L79.9,74.9l31.76,30.8a2.51,2.51,0,0,0,3.55,0l6.16-6.16a2.5,2.5,0,0,0,.41-3ZM66.54,53.3l-2.49-2.48L50.69,37.46,47.54,34.3,38.4,25.22l3-3L79.13,41.51c-3.66,4-7.13,8.19-11.38,13ZM23,83.92l1.7-2.25,16.76,4.12c-.64.84-1.23,1.64-1.79,2.42-1.34,1.84-2.49,3.5-3.46,5ZM40.58,99.6l-.15.08,0,0a26,26,0,0,1-3,1.57,24.7,24.7,0,0,1,1.57-3v0a1.46,1.46,0,0,0,.09-.15c3-5,10.08-14.87,27.07-34.41C80.64,47,95.34,31.32,96.06,30.56c4.64-4.63,11.3-5.78,14.56-2.52S112.73,38,108.1,42.6C107.33,43.32,91.66,58,75,72.52c-19.56,17-29.47,24.12-34.43,27.08ZM57,114l-2.26,1.7-9.28-13.21c1.5-1,3.15-2.12,5-3.46.78-.56,1.6-1.16,2.42-1.79Zm59.48-16.63-3,3L83.7,71.59c4.82-4.25,9.42-8.39,13.45-12.05Z"/></svg>