<?xml version="1.0" standalone="no"?>
<!DOCTYPE svg PUBLIC "-//W3C//DTD SVG 20010904//EN"
 "http://www.w3.org/TR/2001/REC-SVG-20010904/DTD/svg10.dtd">
<svg version="1.0" xmlns="http://www.w3.org/2000/svg"
 width="139.000000pt" height="139.000000pt" viewBox="0 0 139.000000 139.000000"
 preserveAspectRatio="xMidYMid meet">

<g transform="translate(0.000000,139.000000) scale(0.100000,-0.100000)"
fill="#000000" stroke="none">
<path d="M1115 1248 c-11 -6 -72 -62 -136 -124 -123 -121 -137 -128 -190 -97
l-30 18 -314 -315 c-288 -289 -315 -319 -315 -349 0 -29 13 -47 98 -133 106
-109 128 -123 169 -107 28 10 605 577 624 612 8 14 6 28 -6 53 -10 21 -13 43
-9 57 4 12 62 79 130 148 107 109 124 131 124 158 0 67 -84 113 -145 79z m73
-50 c23 -23 11 -44 -76 -131 l-88 -88 -22 24 c-12 13 -22 28 -22 33 0 16 166
174 182 174 8 0 19 -5 26 -12z m-229 -242 c21 -23 21 -24 4 -54 l-18 -31 -37
36 -38 37 28 18 c34 23 34 23 61 -6z m-96 -94 c76 -77 95 -100 85 -110 -18
-18 -40 -15 -105 13 -56 24 -59 28 -85 91 -21 50 -25 71 -17 85 5 10 13 19 17
19 4 0 51 -44 105 -98z m-148 -45 c28 -58 34 -64 99 -95 l69 -33 -25 -26 -26
-26 -70 28 c-69 27 -70 28 -96 89 -14 33 -26 67 -26 75 0 15 28 51 39 51 3 0
20 -28 36 -63z m-101 -95 c28 -66 37 -74 108 -104 l57 -24 -193 -193 c-217
-217 -196 -208 -211 -84 -4 29 -13 54 -20 57 -8 3 -42 8 -77 12 -35 4 -67 9
-72 12 -10 6 365 383 377 379 5 -1 19 -26 31 -55z m-326 -398 c26 -5 31 -12
36 -46 4 -23 4 -43 1 -46 -6 -6 -95 78 -95 90 0 10 17 10 58 2z"/>
<path d="M861 372 c-90 -49 -89 -167 2 -222 40 -25 73 -25 116 -2 65 35 89
118 51 179 -36 60 -106 79 -169 45z m112 -60 c24 -21 22 -77 -3 -102 -27 -27
-66 -25 -95 5 -69 68 25 161 98 97z"/>
</g>
</svg>
