<svg id="Layer_1" data-name="Layer 1" xmlns="http://www.w3.org/2000/svg" viewBox="0 0 139 139"><defs><style>.cls-1{fill:#ea6c24;}</style></defs><title>Fishing Icon_orange v4</title><path class="cls-1" d="M95.42,21.2c1.88.38,3.8.62,5.63,1.15,9.26,2.7,13.24,10.37,10.34,19.6-1.45,4.6-4.12,8.49-6.55,12.56s-4.72,8.6-6.82,13a12.62,12.62,0,0,0-.93,4.94C97,76,98.77,77.73,102.28,78c4.71.32,9-1.11,13.23-3a45.41,45.41,0,0,0,15.27-11.05l.35-.38c1.21-1.24,2.57-1.44,3.52-.52a2.48,2.48,0,0,1-.31,3.45,81.44,81.44,0,0,1-6.69,6.2c-6.49,5-13.67,8.62-21.94,9.62a14,14,0,0,1-8.06-1.12,8.36,8.36,0,0,1-5-7.67c-.24-6.66,2.8-12.2,6-17.66,2.39-4,5-8,7.21-12.05a14.19,14.19,0,0,0,1.72-9.86c-.92-4.34-4.57-7.14-9.85-7.94-8-1.21-15.59.66-22.92,3.71a66.08,66.08,0,0,0-14.94,8.8,1.67,1.67,0,0,0-.73,2.3c1.27,3.3.33,6.63-.35,9.86-1.28,6-2.81,11.93-4.31,17.89a2.66,2.66,0,0,0,.93,3.16,16.23,16.23,0,0,1,5.6,9.51,3.16,3.16,0,0,1-1,3.48,3.24,3.24,0,0,1-3.76.09,29,29,0,0,0-3.74-1.33c-1.9,8.45,1.8,21.82,11.37,27.75a21.77,21.77,0,0,0,5.21-11.07c.08-.58.17-1.15.27-1.73.47-3,2.58-4,5.15-2.27a8.74,8.74,0,0,1,3.94,5.19c.16.61.35,1.22.59,2.11,1.05-.39,2-.7,2.94-1.1,1.62-.68,3.17-.83,4.58.46s1.26,2.8.79,4.4c-1.91,6.43-8.26,10-14.87,10.37-2.37.15-4.78-.35-7.17-.35s-4.78.28-7.18.43c-15,1-27.76-3.2-37.06-15.63a35.18,35.18,0,0,1-6.2-15.52c-.66-3.84-1-7.74-1.45-11.92-1.17.8-2.4,1.54-3.5,2.43-1.41,1.14-2.88,1.6-4.53.71s-1.87-2.47-1.52-4.12c1.93-9.23,6.8-16.41,15.22-21a6.25,6.25,0,0,0,2.05-1.55C27,43.24,35,39.1,44.41,37.53c3.21-.53,6.52-.47,9.77-.77a3.92,3.92,0,0,0,2-.8c8.34-6.69,17.56-11.61,28.12-13.77,1.94-.39,3.9-.66,5.85-1ZM49.94,68.86c-11.21-.41-19.79-4.93-25.09-15.43-.88,1.48-1.72,2.72-2.38,4-5,9.9-5.19,20.26-2.69,30.81a31.11,31.11,0,0,0,17.3,21.58c5,2.47,10.32,3.33,15.79,3.62,1.94.1,3.9,0,5.85,0l.16-.51-1.21-1.12a30.67,30.67,0,0,1-7.61-11.26c-3-7.75-2.56-15.73-1.51-23.73C48.9,74.24,49.45,71.63,49.94,68.86Zm-2-4.55c3.42-.07,2.95.65,3.84-3,.78-3.17,1.67-6.33,2.32-9.5a66.93,66.93,0,0,0,1.16-8.1c.15-1.8-.74-2.53-2.57-2.5a50.53,50.53,0,0,0-5.07.31,34.92,34.92,0,0,0-17.76,6.85,2.24,2.24,0,0,0-.86,3c2.48,7.2,10.54,12.77,18.94,13Zm26.23,37.36-.33.2-5.16,11.26c4.1,1.74,13.1-2.11,13.7-6.08-1.52.47-3,1-4.51,1.38-2.82.76-3.8-.23-3.46-3.12a18.77,18.77,0,0,0-.24-3.64ZM8.77,72.13c1.87-.9,3.34-1.57,4.77-2.33a1.5,1.5,0,0,0,.67-.89c.68-2.82,1.3-5.64,2.06-9A27.92,27.92,0,0,0,8.77,72.13Zm44.71,3.45c-1.16,3.73-.93,4.09,2.53,4ZM46.33,43.5a3.09,3.09,0,0,0-2.9,2.92,3,3,0,0,0,2.92,2.88,2.87,2.87,0,0,0,2.85-2.89,3,3,0,0,0-2.88-2.91Z"/></svg>