<?xml version="1.0" standalone="no"?>
<!DOCTYPE svg PUBLIC "-//W3C//DTD SVG 20010904//EN"
 "http://www.w3.org/TR/2001/REC-SVG-20010904/DTD/svg10.dtd">
<svg version="1.0" xmlns="http://www.w3.org/2000/svg"
 width="139.000000pt" height="139.000000pt" viewBox="0 0 139.000000 139.000000"
 preserveAspectRatio="xMidYMid meet">

<g transform="translate(0.000000,139.000000) scale(0.100000,-0.100000)"
fill="#000000" stroke="none">
<path d="M691 1253 c-35 -17 -70 -77 -71 -120 0 -17 -9 -24 -37 -32 -266 -69
-393 -106 -415 -119 -39 -23 -62 -71 -56 -119 11 -79 181 -689 200 -715 11
-16 36 -33 58 -39 36 -11 58 -7 262 47 195 51 227 62 254 89 17 16 33 35 35
42 3 8 17 9 57 1 39 -8 64 -8 92 1 70 21 76 37 140 403 76 428 75 415 27 463
-24 24 -47 36 -87 43 -93 18 -406 72 -416 72 -5 0 -24 -8 -43 -17z m267 -78
c114 -20 215 -38 225 -41 42 -13 40 -36 -22 -394 -34 -190 -65 -355 -71 -367
-13 -30 -47 -37 -110 -21 l-54 13 -22 82 c-40 149 -42 136 15 172 56 36 121
104 145 149 9 17 16 50 16 73 0 34 -6 47 -35 76 -33 33 -39 35 -83 30 -33 -5
-53 -2 -66 8 -23 17 -79 20 -106 5 -17 -9 -21 -5 -31 36 -8 29 -25 59 -46 81
-30 29 -33 38 -28 66 8 36 32 67 52 67 7 0 107 -16 221 -35z m-281 -147 c13
-16 47 -128 106 -355 48 -183 87 -341 87 -351 0 -10 -8 -26 -17 -35 -26 -22
-435 -131 -466 -123 -14 3 -29 17 -35 33 -31 80 -184 684 -178 706 7 31 1 28
231 92 219 61 244 64 272 33z m209 -147 l22 -25 36 19 c69 37 98 -20 52 -100
-25 -42 -103 -115 -122 -115 -17 0 -41 53 -64 139 l-23 84 22 18 c26 21 48 16
77 -20z"/>
<path d="M445 820 c-9 -15 -85 -242 -85 -255 0 -15 196 -185 213 -185 8 0 19
6 24 13 13 15 83 226 83 247 0 19 -193 190 -214 190 -8 0 -18 -5 -21 -10z
m110 -135 l60 -53 -28 -86 -28 -87 -52 42 c-91 74 -89 69 -62 149 26 76 33 90
43 90 4 -1 34 -25 67 -55z"/>
</g>
</svg>
