<?xml version="1.0" encoding="utf-8"?>
<!-- Generator: Adobe Illustrator 26.0.3, SVG Export Plug-In . SVG Version: 6.00 Build 0)  -->
<svg version="1.1" id="Layer_1" xmlns="http://www.w3.org/2000/svg" xmlns:xlink="http://www.w3.org/1999/xlink" x="0px" y="0px"
	 viewBox="0 0 50 50" style="enable-background:new 0 0 50 50;" xml:space="preserve">
<style type="text/css">
	.st0{fill:#FFFFFF;}
	.st1{fill:#EC6B00;}
</style>
<rect x="0.7" y="0.7" class="st0" width="48.6" height="48.6"/>
<g>
	<path class="st1" d="M20.2,47.1c-2.2-0.6-3.9-2-5.9-3c-1.8-0.9-3.6-2-5.3-3c-1.6-0.9-2.4-2.2-2.4-4c0-9.2,0-18.4,0-27.5
		c0-2.7,2-4.6,4.8-4.6c7,0,14,0,21,0c2.8,0,4.8,1.8,4.8,4.5c0,1.9,0,3.8,0,5.6c0,0.6-0.2,1.1-0.8,1.3c-0.5,0.2-1,0.1-1.5-0.2
		c-0.4-0.3-0.4-0.7-0.4-1.2c0-1.8,0-3.7,0-5.5c0-1-0.6-1.7-1.5-1.9c-0.2,0-0.3,0-0.5,0c-6.3,0-12.7,0-19,0c-0.1,0-0.2,0-0.4,0
		c0.2,0.1,0.3,0.2,0.4,0.3c3.1,1.7,6.2,3.5,9.4,5.2c1.8,1,2.6,2.4,2.6,4.4c0,6.5,0,13.1,0,19.6c0,0.2,0,0.4,0,0.6c0.2,0,0.3,0,0.5,0
		c2.1,0,4.3,0,6.4,0c1.4,0,2.1-0.7,2.1-2c0-1.6,0-3.2,0-4.8c0-1,0.8-1.6,1.7-1.4c0.5,0.1,0.8,0.5,1,1c0,0.1,0,0.2,0,0.3
		c0,1.8,0.1,3.6,0,5.3c-0.1,2.5-2.1,4.2-4.6,4.2c-2.2,0-4.3,0-6.5,0c-0.2,0-0.3,0-0.6,0c0,0.4,0,0.7,0,1c0,0.7,0,1.5-0.1,2.2
		c-0.4,1.9-1.7,3-3.6,3.4c-0.1,0-0.2,0.1-0.3,0.1C21.1,47.1,20.6,47.1,20.2,47.1z M9.4,8.6c0,0.4-0.1,0.8-0.1,1.1c0,9,0,18.1,0,27.1
		c0,0.1,0,0.2,0,0.3c0,0.8,0.3,1.3,1,1.7c0.8,0.4,1.6,0.9,2.4,1.3c2.4,1.3,4.8,2.7,7.1,4c0.5,0.3,0.9,0.4,1.5,0.3
		c1-0.2,1.5-0.9,1.5-2c0-8.4,0-16.7,0-25.1c0-0.9-0.4-1.5-1.2-1.9c-2.4-1.3-4.7-2.6-7.1-3.9C12.9,10.5,11.2,9.6,9.4,8.6z"/>
	<path class="st1" d="M40.8,21.3c-0.7-0.7-1.4-1.3-2-2c-0.4-0.4-0.6-0.9-0.4-1.5c0.3-0.9,1.5-1.1,2.3-0.4c0.9,0.8,1.7,1.7,2.6,2.5
		c0.6,0.5,1.1,1.1,1.7,1.6c0.6,0.6,0.7,1.4,0,2c-1.4,1.4-2.9,2.8-4.3,4.2c-0.6,0.6-1.4,0.6-2,0.1c-0.6-0.5-0.5-1.4,0.1-1.9
		c0.6-0.6,1.3-1.2,2-1.9c-0.3,0-0.4,0-0.5,0c-3.9,0-7.7,0-11.6,0c-0.2,0-0.3,0-0.5,0c-0.8-0.1-1.3-0.7-1.3-1.4
		c0-0.7,0.6-1.2,1.4-1.2c1.5,0,2.9,0,4.4,0c2.5,0,5,0,7.5,0C40.4,21.3,40.5,21.3,40.8,21.3z"/>
</g>
</svg>
