<?xml version="1.0" standalone="no"?>
<!DOCTYPE svg PUBLIC "-//W3C//DTD SVG 20010904//EN"
 "http://www.w3.org/TR/2001/REC-SVG-20010904/DTD/svg10.dtd">
<svg version="1.0" xmlns="http://www.w3.org/2000/svg"
 width="139.000000pt" height="139.000000pt" viewBox="0 0 139.000000 139.000000"
 preserveAspectRatio="xMidYMid meet">

<g transform="translate(0.000000,139.000000) scale(0.100000,-0.100000)"
fill="#000000" stroke="none">
<path d="M610 1263 c-225 -35 -407 -200 -465 -423 -23 -88 -16 -250 15 -337
49 -139 154 -258 284 -322 101 -50 147 -60 264 -61 294 -1 535 228 559 528 22
289 -171 548 -452 607 -66 14 -148 17 -205 8z m216 -66 c13 -12 -48 -67 -88
-79 -45 -13 -99 -1 -142 33 -32 25 -33 46 -3 52 33 8 225 3 233 -6z m-298 -52
c7 -14 33 -39 59 -55 40 -26 57 -30 113 -30 56 0 73 4 113 30 26 16 52 41 59
55 6 14 19 25 28 25 21 0 97 -49 149 -95 39 -35 121 -154 121 -175 0 -6 -20
-29 -44 -53 -92 -88 -88 -231 8 -315 46 -40 44 -55 -18 -140 -50 -68 -120
-127 -183 -156 l-42 -18 -32 36 c-44 51 -97 76 -159 76 -69 0 -118 -22 -162
-72 l-37 -42 -44 21 c-60 29 -155 120 -194 184 -42 71 -49 89 -31 89 8 0 28
15 46 32 89 93 81 237 -18 320 l-43 35 38 59 c49 78 98 128 169 175 69 46 89
48 104 14z m-271 -364 c43 -63 23 -179 -36 -210 -17 -10 -20 -7 -27 22 -9 39
-8 178 1 207 9 29 35 22 62 -19z m956 -17 c8 -54 0 -173 -13 -194 -7 -11 -15
-6 -39 19 -39 42 -54 94 -41 143 11 38 56 91 74 85 6 -2 14 -26 19 -53z m-472
-494 c24 0 97 -65 86 -77 -11 -10 -243 -11 -253 0 -4 4 6 21 23 38 29 30 84
51 111 43 8 -2 22 -4 33 -4z"/>
<path d="M592 950 c-69 -31 -110 -69 -139 -127 -93 -191 37 -403 247 -403 103
1 184 48 238 139 24 41 27 56 27 136 0 106 -19 151 -86 208 -77 66 -200 87
-287 47z m220 -69 c120 -76 143 -222 52 -330 -84 -101 -244 -100 -329 1 -43
51 -58 95 -53 159 5 71 41 128 105 170 40 24 57 29 113 29 56 0 73 -5 112 -29z"/>
<path d="M648 823 c-24 -27 -30 -58 -17 -87 10 -21 9 -29 -4 -43 -39 -44 -29
-111 22 -138 43 -22 75 -19 109 10 37 31 44 64 22 112 -10 24 -15 54 -12 81 3
32 -1 48 -13 62 -23 26 -86 27 -107 3z m80 -25 c32 -32 -8 -80 -48 -58 -34 18
-19 70 20 70 9 0 21 -5 28 -12z m6 -119 c45 -36 23 -99 -35 -99 -56 0 -82 73
-37 104 29 21 40 20 72 -5z"/>
</g>
</svg>
