<?xml version="1.0" standalone="no"?>
<!DOCTYPE svg PUBLIC "-//W3C//DTD SVG 20010904//EN"
 "http://www.w3.org/TR/2001/REC-SVG-20010904/DTD/svg10.dtd">
<svg version="1.0" xmlns="http://www.w3.org/2000/svg"
 width="139.000000pt" height="139.000000pt" viewBox="0 0 139.000000 139.000000"
 preserveAspectRatio="xMidYMid meet">

<g transform="translate(0.000000,139.000000) scale(0.100000,-0.100000)"
fill="#000000" stroke="none">
<path d="M540 1215 c-30 -7 -71 -20 -91 -29 -33 -14 -36 -13 -47 5 -10 15 -23
19 -65 18 -92 -1 -132 -11 -135 -37 -2 -12 -8 -22 -13 -22 -15 0 -12 -313 4
-333 10 -15 27 -17 116 -15 l104 3 21 38 c26 45 66 74 118 82 40 7 118 -2 118
-14 0 -4 -14 -15 -31 -25 -58 -34 -182 -160 -231 -235 -26 -40 -57 -103 -68
-138 -21 -70 -26 -166 -10 -208 l10 -25 222 2 223 3 6 80 c13 169 69 284 206
425 l93 95 0 156 c0 181 7 169 -105 169 -83 0 -105 -6 -105 -27 0 -11 -5 -13
-17 -8 -124 52 -227 65 -323 40z m285 -84 c37 -17 71 -31 76 -31 5 0 15 11 21
25 10 22 18 25 60 25 l48 0 0 -123 0 -123 -61 -59 c-128 -126 -210 -276 -231
-425 l-11 -80 -175 0 -174 0 3 78 c5 102 46 186 143 289 75 80 128 121 221
169 42 21 60 37 60 50 0 16 -6 19 -38 17 -23 -2 -55 6 -77 17 -51 26 -150 27
-206 1 -22 -10 -56 -37 -76 -60 -34 -40 -36 -41 -101 -41 l-67 0 0 38 c0 22 3
87 7 145 l6 107 52 0 c46 0 53 -3 63 -25 13 -28 23 -30 55 -13 12 6 51 22 87
35 55 20 79 23 156 20 77 -3 103 -9 159 -36z"/>
<path d="M1157 1149 c-15 -9 -17 -29 -18 -167 l0 -157 -59 -43 c-145 -105
-240 -310 -227 -484 l6 -68 -224 0 c-224 0 -275 -6 -275 -34 0 -31 38 -36 289
-36 286 0 284 0 270 72 -38 197 47 403 217 524 l64 46 0 168 c0 176 -6 199
-43 179z"/>
</g>
</svg>
