<?xml version="1.0" standalone="no"?>
<!DOCTYPE svg PUBLIC "-//W3C//DTD SVG 20010904//EN"
 "http://www.w3.org/TR/2001/REC-SVG-20010904/DTD/svg10.dtd">
<svg version="1.0" xmlns="http://www.w3.org/2000/svg"
 width="139.000000pt" height="139.000000pt" viewBox="0 0 139.000000 139.000000"
 preserveAspectRatio="xMidYMid meet">

<g transform="translate(0.000000,139.000000) scale(0.100000,-0.100000)"
fill="#000000" stroke="none">
<path d="M553 1256 c-199 -50 -366 -221 -420 -426 -78 -303 122 -624 434 -694
288 -64 574 96 674 380 68 191 9 434 -141 584 -110 110 -228 160 -390 166 -67
2 -124 -1 -157 -10z m222 -55 l30 -6 -49 -38 c-27 -20 -55 -37 -63 -37 -17 0
-103 60 -103 71 0 15 128 22 185 10z m-197 -87 l77 -56 5 -86 c3 -48 2 -92 -2
-98 -4 -5 -32 -27 -62 -48 l-54 -37 -78 32 c-44 18 -84 37 -90 43 -6 6 -21 49
-33 95 l-23 84 29 28 c24 24 139 99 151 99 2 0 38 -25 80 -56z m370 22 c26
-14 63 -38 82 -54 l35 -29 -13 -63 c-26 -125 -29 -129 -107 -161 -38 -15 -79
-28 -90 -28 -12 -1 -44 16 -73 37 l-51 37 -1 65 c0 36 -3 75 -6 86 -5 18 7 32
68 78 40 31 81 56 91 56 10 0 39 -11 65 -24z m-659 -218 c6 -26 11 -53 11 -62
0 -12 -89 -76 -106 -76 -4 0 -3 17 1 38 9 50 65 166 75 156 4 -5 12 -30 19
-56z m872 -15 c18 -39 41 -133 33 -133 -3 0 -29 17 -60 37 -45 30 -54 41 -49
57 3 12 11 43 17 69 11 45 13 47 26 30 8 -10 23 -37 33 -60z m-404 -119 c29
-20 53 -44 53 -53 0 -10 -9 -45 -21 -79 l-21 -63 -76 3 -75 3 -18 50 c-29 83
-26 97 34 138 28 20 56 37 62 37 5 0 33 -16 62 -36z m-323 -13 l70 -28 23 -69
c13 -37 23 -75 23 -83 -1 -9 -25 -43 -55 -75 l-54 -59 -103 11 c-75 8 -106 15
-115 28 -13 17 -43 139 -43 173 0 15 24 36 83 75 45 30 87 55 92 55 6 0 41
-13 79 -28z m693 -28 c40 -26 73 -51 74 -57 3 -38 -5 -98 -22 -152 l-19 -61
-83 -7 c-45 -4 -90 -9 -99 -12 -12 -3 -34 12 -67 48 -75 79 -76 82 -49 167
l23 74 70 28 c39 16 76 26 84 23 8 -2 48 -26 88 -51z m-273 -275 c31 -35 56
-67 55 -73 0 -5 -8 -48 -17 -95 l-18 -85 -39 -12 c-77 -23 -302 -11 -320 16
-6 10 -35 153 -35 173 0 9 24 44 53 77 l52 61 107 0 106 0 56 -62z m256 -66
c0 -21 -144 -151 -155 -140 -2 2 1 32 7 66 12 67 5 61 98 75 44 7 50 7 50 -1z
m-728 -12 c24 0 27 -5 37 -50 14 -63 14 -80 1 -80 -13 0 -140 120 -140 132 0
7 15 8 38 4 20 -3 49 -6 64 -6z"/>
</g>
</svg>
