<?xml version="1.0" standalone="no"?>
<!DOCTYPE svg PUBLIC "-//W3C//DTD SVG 20010904//EN"
 "http://www.w3.org/TR/2001/REC-SVG-20010904/DTD/svg10.dtd">
<svg version="1.0" xmlns="http://www.w3.org/2000/svg"
 width="139.000000pt" height="139.000000pt" viewBox="0 0 139.000000 139.000000"
 preserveAspectRatio="xMidYMid meet">

<g transform="translate(0.000000,139.000000) scale(0.100000,-0.100000)"
fill="#000000" stroke="none">
<path d="M655 1296 c-17 -7 -35 -19 -42 -27 -17 -20 -393 -905 -393 -924 0 -9
7 -29 15 -44 12 -24 48 -43 229 -120 119 -50 227 -91 241 -91 56 0 75 36 269
492 102 241 186 450 186 466 0 56 -29 75 -253 171 -117 50 -215 91 -218 91 -2
-1 -18 -7 -34 -14z m245 -132 c109 -47 201 -93 204 -101 6 -14 -154 -407 -173
-426 -6 -6 -434 173 -448 187 -4 4 168 399 179 414 6 6 17 12 24 12 8 0 104
-39 214 -86z m-212 -496 c119 -50 218 -92 219 -93 3 -1 -70 -174 -143 -343
-33 -73 -39 -82 -63 -81 -35 1 -401 160 -414 179 -7 12 14 70 79 223 49 114
92 207 97 207 4 0 105 -41 225 -92z"/>
<path d="M704 1075 c-19 -30 -11 -60 22 -82 24 -15 27 -15 52 4 15 11 28 30
30 42 8 55 -73 83 -104 36z"/>
<path d="M813 900 c-12 -5 -25 -21 -29 -36 -11 -45 24 -82 68 -71 48 12 54 82
9 106 -23 13 -19 12 -48 1z"/>
<path d="M557 492 c-26 -28 -21 -69 9 -89 24 -15 29 -15 53 -2 16 9 27 25 29
43 7 55 -56 87 -91 48z"/>
</g>
</svg>
