<svg xmlns="http://www.w3.org/2000/svg" xmlns:xlink="http://www.w3.org/1999/xlink" width="53" height="53" viewBox="0 0 53 53">
  <defs>
    <linearGradient id="linear-gradient" x1="0.5" x2="0.5" y2="1" gradientUnits="objectBoundingBox">
      <stop offset="0" stop-color="#ffab2d"/>
      <stop offset="1" stop-color="#f70"/>
    </linearGradient>
    <filter id="Ellipse_16" x="0" y="0" width="53" height="53" filterUnits="userSpaceOnUse">
      <feOffset dy="3" input="SourceAlpha"/>
      <feGaussianBlur stdDeviation="3" result="blur"/>
      <feFlood flood-opacity="0.502"/>
      <feComposite operator="in" in2="blur"/>
      <feComposite in="SourceGraphic"/>
    </filter>
  </defs>
  <g id="Group_308" data-name="Group 308" transform="translate(-341 -897)">
    <g id="Group_307" data-name="Group 307" transform="translate(1074 -667)">
      <g transform="matrix(1, 0, 0, 1, -733, 1564)" filter="url(#Ellipse_16)">
        <circle id="Ellipse_16-2" data-name="Ellipse 16" cx="17.5" cy="17.5" r="17.5" transform="translate(9 6)" fill="url(#linear-gradient)"/>
      </g>
    </g>
    <path id="arrow-17" d="M15.443,7.055c.015-.018.026-.036.039-.054l.046-.059.039-.065c0-.018.023-.036.034-.057l.031-.067a.62.62,0,0,0,.028-.059.255.255,0,0,1,.026-.07l.023-.065a.112.112,0,0,1,.018-.072l.015-.065a.2.2,0,0,1,.013-.085V6.283a1.33,1.33,0,0,0,0-.287V5.942a.2.2,0,0,0-.013-.085l-.015-.067a.739.739,0,0,1-.018-.072l-.023-.065a.517.517,0,0,0-.026-.067.421.421,0,0,0-.028-.059l-.031-.07L15.575,5.4l-.039-.067-.054-.065c0-.018-.023-.036-.039-.054s-.062-.072-.1-.106L10.76.532a1.443,1.443,0,0,0-2.04,2.04L10.845,4.7H1.268a1.443,1.443,0,1,0,0,2.884h9.577L8.72,9.706a1.443,1.443,0,1,0,2.04,2.042L15.348,7.16C15.382,7.127,15.413,7.08,15.443,7.055Z" transform="translate(360.853 928.764) rotate(-90)" fill="#fff"/>
  </g>
</svg>
