<?xml version="1.0" encoding="utf-8"?>
<!-- Generator: Adobe Illustrator 24.0.0, SVG Export Plug-In . SVG Version: 6.00 Build 0)  -->
<svg version="1.1" id="Layer_1" xmlns="http://www.w3.org/2000/svg" xmlns:xlink="http://www.w3.org/1999/xlink" x="0px" y="0px"
	 viewBox="0 0 100 100" style="enable-background:new 0 0 100 100;" xml:space="preserve">
<style type="text/css">
	.st0{fill:#FFFFFF;}
</style>
<g>
	<path class="st0" d="M78.2,22.8H22.3c-0.3,0-0.5-0.2-0.5-0.5v-9.4c0-0.3,0.2-0.5,0.5-0.5h55.9c0.3,0,0.5,0.2,0.5,0.5v9.4
		C78.7,22.5,78.5,22.8,78.2,22.8z"/>
	<path class="st0" d="M50,97.6c-14.1,0-28.3,0-42.4,0c-1.9,0-2.5-0.5-2.5-2.5c0-17.7,0-35.4,0-53c0-1.3,0.4-2.2,1.4-3
		c4.9-4.1,9.8-8.3,14.6-12.5c0.4-0.3,0.6-0.9,0.6-1.4c0.1-3.3,0-6.6,0-10c0-2.2,0.6-2.9,2.8-2.9c4.1,0,8.2,0,12.4,0
		c0.5,0,1.1-0.2,1.5-0.6c3.4-2.8,6.7-5.7,10-8.5c1.3-1.1,2.2-1.1,3.6,0c3.3,2.8,6.6,5.7,10,8.4c0.4,0.4,1.1,0.6,1.7,0.6
		c4.1,0.1,8.2,0,12.4,0c2,0,2.7,0.7,2.7,2.7c0,3.4,0,6.8,0,10.2c0,0.6,0.2,1.1,0.7,1.5c4.8,4.2,9.5,8.4,14.3,12.6
		c0.9,0.8,1.3,1.6,1.3,2.8c0,17.7,0,35.4,0,53c0,1.9-0.5,2.4-2.4,2.4C78.3,97.6,64.2,97.6,50,97.6z M49.9,73.2
		c0.1-0.1,0.2-0.1,0.3-0.1C58,66.7,65.8,60.4,73.6,54c0.3-0.3,0.5-0.9,0.6-1.3c0-11.7,0-23.5,0-35.2c0-0.3,0-0.6,0-1
		c-16.2,0-32.3,0-48.5,0c0,0.3,0,0.6,0,0.8c0,11.9,0,23.7,0,35.6c0,0.4,0.3,1,0.7,1.3c3.6,2.9,7.2,5.8,10.8,8.7
		C41.3,66.3,45.6,69.8,49.9,73.2z M60.8,69.8c-0.3,0.3-0.6,0.5-0.9,0.7c-2.8,2.3-5.6,4.6-8.4,6.8c-1.2,1-2,1-3.2,0
		c-0.2-0.2-0.5-0.4-0.7-0.6c-2.8-2.3-5.7-4.6-8.6-6.9c-8.8,7.9-17.6,15.7-26.6,23.6c25,0,49.7,0,74.6,0
		C78.3,85.4,69.6,77.6,60.8,69.8z M9.1,90.9c8.9-8,17.7-15.8,26.6-23.7C26.8,60,18,52.9,9.1,45.6C9.1,60.8,9.1,75.7,9.1,90.9z
		 M90.7,90.8c0-15.1,0-30.1,0-45.3C81.7,52.8,72.9,60,64.1,67.1C73,75.1,81.8,82.9,90.7,90.8z M78.4,31.6c0,6.3,0,12.4,0,18.7
		c3.8-3,7.4-6,11.1-9C85.8,38,82.2,34.9,78.4,31.6z M21.4,31.5c-3.8,3.3-7.4,6.5-11.1,9.7c3.7,3,7.4,6,11.1,9
		C21.4,43.9,21.4,37.8,21.4,31.5z M49.9,7.1c-2,1.7-3.9,3.4-6,5.2c4.1,0,7.9,0,11.9,0C53.8,10.4,51.9,8.8,49.9,7.1z M50,27.8
		c5.2,0,10.4,0,15.6,0c1,0,1.8-0.3,2.2-1.2c0.7-1.5-0.4-2.9-2.3-2.9c-10.4,0-20.8,0-31.2,0c-1.5,0-2.5,0.8-2.5,2.1
		c0,1.2,1,2.1,2.5,2.1C39.6,27.8,44.8,27.8,50,27.8z M49.9,45.3c-3.7,0-7.3,0-11,0c-1.7,0-3.3,0-5,0c-1.2,0-2.1,0.9-2.1,1.9
		c-0.1,1,0.7,1.9,1.9,2.1c0.4,0.1,0.7,0.1,1.1,0.1c10.1,0,20.2,0,30.3,0c0.5,0,1,0.1,1.4-0.1c0.5-0.3,1.1-0.7,1.4-1.2
		c0.7-1.4-0.4-2.8-2.1-2.8C60.5,45.3,55.2,45.3,49.9,45.3z M49.9,38.6c4.9,0,9.8,0,14.7,0c0.5,0,1.1,0,1.6,0c1-0.1,1.8-1,1.8-2
		c0-1-0.7-1.9-1.7-2c-0.4-0.1-0.9-0.1-1.3-0.1c-10.1,0-20.1,0-30.2,0c-0.5,0-0.9,0-1.4,0.1c-0.9,0.2-1.6,1.1-1.6,2
		c0,1,0.8,1.9,1.8,2c0.4,0.1,0.8,0,1.2,0C39.9,38.6,44.9,38.6,49.9,38.6z M73.9,54.7L50,73.9L25.8,54.7c-0.6-0.5-1-1.2-1-2V17.4
		c0-0.5,0.4-0.9,0.9-0.9h48.1c0.5,0,0.9,0.4,0.9,0.9v35.2C74.9,53.4,74.5,54.2,73.9,54.7z"/>
</g>
</svg>
