<svg id="Layer_1" data-name="Layer 1" xmlns="http://www.w3.org/2000/svg" viewBox="0 0 200 200"><defs><style>.cls-1{fill:#8c3794;}.cls-2,.cls-3{fill:#fff;}.cls-2{fill-rule:evenodd;}</style></defs><title>rocket bank</title><rect class="cls-1" width="200" height="200" rx="9.18"/><path class="cls-2" d="M137.5,64.05,114.71,86.83l1.6,12.8,4.2-8.8,13,16.59,18.19-56L91.13,76.64l16.39,8.59,30-21.18"/><path class="cls-3" d="M108.92,128H95.53c-8.29.49-11-13.19-.8-15h14.19Zm8.79-24h-24c-18.29,2.8-20.19,29.38-.2,33h24.18V113c8.06.26,9.73,10.32,3.8,14,1.2,1.4,6,6.59,6,6.59,12.59-10.86,5.39-28.71-9.8-29.58"/><path class="cls-2" d="M167.88,116h-8.8l-3.79,8.8h11.19c2.25-.1,2.35,3.2,0,3.4H147.09V113h29.78v-9h-4.39c-1.3-18.59-23.54-19.13-29.38-9,1.15,1,6.59,5.79,6.59,5.79,3.35-5.24,12.64-5,14,3.2H138.3v33h28.58c6.49-.1,9.49-4.9,10.19-9,.4-6.6-3.6-11-9.19-12"/><path class="cls-2" d="M82.33,104H70.74c-3.7,4.5-10.09,22.69,2.6,36.38,0,0,5.5-4.7,6.59-5.6C76,131,69.54,115.51,82.33,104"/><path class="cls-2" d="M52.83,140.71a7.27,7.27,0,1,1-7.27-7.26,7.27,7.27,0,0,1,7.27,7.26"/><path class="cls-2" d="M52.55,128H39.16c-8.29.49-11-13.19-.8-15H52.55ZM37.36,104c-18.28,2.8-20.18,29.38-.2,33h.14a9.05,9.05,0,0,1,16.52,0h7.53V104h-24"/><path class="cls-2" d="M45.58,92.17a.76.76,0,0,1-.75.75H41V91.33h3.83a.75.75,0,0,1,.75.75ZM46,96.23c2.95-.5,4.4-6.55-.4-7.9h-7.8v11.5H41v-3.6l3.6,3.6h5L46,96.23"/><path class="cls-2" d="M55.12,96.53A2.56,2.56,0,1,1,57.68,94,2.56,2.56,0,0,1,55.12,96.53Zm0-8.38A5.83,5.83,0,1,0,61,94a5.83,5.83,0,0,0-5.83-5.82"/><path class="cls-2" d="M88.16,91.46H93.4V88.08H89a5.86,5.86,0,1,0,0,11.69H93.4V96.39H88.16a2.4,2.4,0,0,1-1.89-.93H93.4V92.39H86.27a2.4,2.4,0,0,1,1.89-.93"/><path class="cls-2" d="M67.36,96.39A2.41,2.41,0,0,1,65,94v-.13a2.41,2.41,0,0,1,2.4-2.4h5V88.08H67.87a5.86,5.86,0,1,0,0,11.69h4.46V96.39h-5"/><path class="cls-2" d="M105.55,88.31H94.27v3H98.4v8.26h3V91.33h4.13v-3"/><path class="cls-3" d="M78.7,93.9l5.56-5.59h-4.5l-3.12,3.14V88.31h-3V99.59h3V96.35l3.21,3.24h4.49L78.7,93.9"/><path class="cls-3" d="M124.13,142.59a2.19,2.19,0,0,0-1.32.94,2.59,2.59,0,0,0-.54,1.53,2.17,2.17,0,0,0,.19.9c.16.37.38.55.66.55a1,1,0,0,0,.54-.23l.32.84a1.64,1.64,0,0,1-.83.26,1.68,1.68,0,0,1-1.05-.41,2.11,2.11,0,0,1-.55-.9,2.65,2.65,0,0,1-.13-1v-.31a3.8,3.8,0,0,1,1.08-2.31c.16-.17.42-.43.78-.75h1.14v.83l-.29,0"/><path class="cls-3" d="M128.23,142.56H126a2,2,0,0,1,1,1.61,3.56,3.56,0,0,1,1.25.94Zm1,0v4.75h-1v-.61a1.36,1.36,0,0,0-.48-.81,5.11,5.11,0,0,0-.77-.65,1.6,1.6,0,0,0-1-.31.81.81,0,0,0-.78.46.23.23,0,0,0,0,.13.46.46,0,0,0,.19.34.59.59,0,0,0,.38.15,2.78,2.78,0,0,0,.72-.22l.28.86a2.39,2.39,0,0,1-1.06.33,1.52,1.52,0,0,1-.87-.27,1.56,1.56,0,0,1-.57-.7,1,1,0,0,1-.08-.46,1.36,1.36,0,0,1,.67-1.23,1.78,1.78,0,0,1,1-.31H126a1,1,0,0,0-.27-.55.65.65,0,0,0-.49-.31h-1v-.59h-.42v-.83h6.11v.83h-.65"/><path class="cls-3" d="M131,142.56v4.75h-.95v-4.75h-.7v-.83h2.28v.83H131"/><path class="cls-3" d="M135.66,143.59l-.57.21-1.63.71-.18.08a7.9,7.9,0,0,1,2.15,1.16l.23.17Zm-.06-1h-4.27v-.83h5.92v.83h-.66v4.75h-.84c-.08-.24-.49-.62-1.23-1.13a5.82,5.82,0,0,0-1.25-.61,4.23,4.23,0,0,0-1.36-.32l-.25-.94a10.07,10.07,0,0,1,1.83-.92c.43-.18,1.13-.46,2.11-.83"/><path class="cls-3" d="M138.44,142.56v4.75h-.95v-4.75h-.7v-.83h2.28v.83h-.63"/><path class="cls-3" d="M142,148.11a12.79,12.79,0,0,0-1.23-1,4.5,4.5,0,0,0-1-.48,3.5,3.5,0,0,0-.68-.21v-1.11h.37l.37,0a2.81,2.81,0,0,0,1-.17c.51-.21.76-.47.76-.76a.62.62,0,0,0-.29-.53l-.57-.32a.34.34,0,0,0-.16,0,1.13,1.13,0,0,0-.38.08c-.17.08-.24.17-.23.27s.29.35.78.31l-.52.79a1.06,1.06,0,0,1-.63-.2,1.16,1.16,0,0,1-.59-1,1,1,0,0,1,.6-.88,2.23,2.23,0,0,1,1.11-.27,1.13,1.13,0,0,1,.47.09c.13.06.26.12.4.2a1.58,1.58,0,0,1,1,1.49,1.36,1.36,0,0,1-.59,1.16,3,3,0,0,1-1.3.48c.16.08.41.22.72.41a11.89,11.89,0,0,1,1.3,1.09Zm-3.3-5.55v-.83h2.8a.23.23,0,0,0,0-.07.83.83,0,0,0-.61-.86l-.18,0a1.48,1.48,0,0,0-.38.06l-.36.09a1.3,1.3,0,0,0-.42.15,2.77,2.77,0,0,1-.54.29l-.3-.7a5.17,5.17,0,0,1,1.43-.65,2.64,2.64,0,0,1,.71-.1,1.67,1.67,0,0,1,.8.25,1.73,1.73,0,0,1,.78,1.56H143v.83h-4.29"/><path class="cls-3" d="M148.7,142.56v4.75h-.94v-1.88a.79.79,0,0,0-.22-.51.6.6,0,0,0-.45-.26.53.53,0,0,0-.42.28,1,1,0,0,0-.2.62h-1a1.19,1.19,0,0,0-.2-.68.57.57,0,0,0-.47-.28.72.72,0,0,0-.43.15.58.58,0,0,0-.22.37l0,.25v.09c0,.49.3.74.9.74a3.32,3.32,0,0,0,.48-.06l-.33,1-.36,0a1.85,1.85,0,0,1-1.23-.5,1.3,1.3,0,0,1-.36-.57,1.81,1.81,0,0,1-.13-.67,1.73,1.73,0,0,1,.47-1.25,1.68,1.68,0,0,1,1.25-.48,1.45,1.45,0,0,1,1.2.69,1.46,1.46,0,0,1,1.13-.69.92.92,0,0,1,.65.31v-1.41h-5.13v-.83h6.61v.83h-.54"/><path class="cls-3" d="M155.88,143.59l-.57.21-1.62.71-.19.08a8,8,0,0,1,2.16,1.16l.22.17Zm-.06-1h-4.27v-.83h5.92v.83h-.66v4.75H156c-.08-.24-.49-.62-1.23-1.13a5.82,5.82,0,0,0-1.25-.61,4.23,4.23,0,0,0-1.36-.32l-.25-.94a10.31,10.31,0,0,1,1.84-.92c.42-.18,1.12-.46,2.1-.83"/><path class="cls-3" d="M159.06,142.56a1.94,1.94,0,0,0-.45,1,8.85,8.85,0,0,0,.46,1.5,3.43,3.43,0,0,1,.24,1.1,1.19,1.19,0,0,1-.93,1.16,4.65,4.65,0,0,1-1,.18l.12-.82q.84-.18.84-.6a3.25,3.25,0,0,0-.35-1.18,3.53,3.53,0,0,1-.35-1.18,2.55,2.55,0,0,1,.41-1.19h-1v-.83h2.65v.83h-.65"/><path class="cls-3" d="M161.09,142.56v4.75h-1v-4.75h-.7v-.83h2.28v.83h-.63"/><path class="cls-3" d="M163.48,142.88a.44.44,0,0,0-.29-.08c-.35.06-.53.24-.53.53a.58.58,0,0,0,.18.42.52.52,0,0,0,.4.2l.13,0a.5.5,0,0,0,.4-.5A.63.63,0,0,0,163.48,142.88Zm.84,5a15.1,15.1,0,0,0-2.45-1.82v-1.31a15.14,15.14,0,0,1,3.25,2.83v1Zm-1-3.06a1.42,1.42,0,0,1-1.07-.42,1.49,1.49,0,0,1-.4-1.08,1.39,1.39,0,0,1,.41-1,1.43,1.43,0,0,1,1-.41,1.25,1.25,0,0,1,1.21.84,1.65,1.65,0,0,1,.16.7,1.45,1.45,0,0,1-.34,1,1.31,1.31,0,0,1-1,.37"/><path class="cls-3" d="M171.1,141.17a5.59,5.59,0,0,0-2.72-1,2.14,2.14,0,0,0-1.83.79,1.5,1.5,0,0,0-.22.81H167v.83h-.67v4.75h-1v-4.75h-.63v-.83h.63a2.34,2.34,0,0,1,.67-1.64,2.87,2.87,0,0,1,1.73-.77l.42,0h.2a4.31,4.31,0,0,1,1.73.37,15.84,15.84,0,0,1,1.52.87l-.53.66"/><path class="cls-3" d="M169.36,143.66a7.89,7.89,0,0,1-.71.47.9.9,0,0,0-.27.21l-.3.28c.1.09.26.22.48.38l.8.88Zm.95-1.1v0a3,3,0,0,1,1.24.38,1.51,1.51,0,0,1,.91,1.35,1.24,1.24,0,0,1-.31.85,1.43,1.43,0,0,1-.79.48,2,2,0,0,1-.83,0v-.9a1.53,1.53,0,0,0,.3,0c.47,0,.71-.18.71-.52s-.41-.66-1.23-.77v3.79h-.84a2.93,2.93,0,0,0-.4-.61s-.17-.21-.37-.47a1.68,1.68,0,0,0-.33-.33,2,2,0,0,1-.33-.32.54.54,0,0,0-.23-.13,3.32,3.32,0,0,0-1-.22l-.26-.94c.21-.15.68-.44,1.42-.85.05,0,.27-.17.67-.39l.71-.42v-.07h-3v-.83h6.52v.83h-2.57"/><path class="cls-3" d="M174.49,142.88a.43.43,0,0,0-.28-.08c-.36.06-.54.24-.54.53a.58.58,0,0,0,.18.42.54.54,0,0,0,.4.2l.13,0a.51.51,0,0,0,.41-.5A.64.64,0,0,0,174.49,142.88Zm.84,5a15.1,15.1,0,0,0-2.45-1.82v-1.31a14.88,14.88,0,0,1,3.25,2.83v1Zm-1-3.06a1.41,1.41,0,0,1-1.07-.42,1.49,1.49,0,0,1-.41-1.08,1.36,1.36,0,0,1,.42-1,1.39,1.39,0,0,1,1-.41,1.27,1.27,0,0,1,1.22.84,1.82,1.82,0,0,1,.16.7,1.45,1.45,0,0,1-.35,1,1.29,1.29,0,0,1-1,.37"/><path class="cls-3" d="M69.35,147.72l1.77.59.71-.59-1.77-.62-.71.62"/><path class="cls-3" d="M68.41,145c.18.05.41-.23.59-.47v1.1c0,.42-.34.79-.59.79H65.93V145Zm1.53-2.23v-1.07H56.05v1.07h2.34v2.39h2s.57-.18.71-.47v.94a.77.77,0,0,1-.71.79h-3c-.17,0-.35-.08-.35-.79v-2.23h-1v2.86c0,.24.15,1.07.9,1.07h4a1.26,1.26,0,0,0,1.1-1.19v-2.74H61.1c-.1.42,0,.71-.47.82H59.45v-1.45h3.42v4.56H64v-4.56h.83v4.56h3.89a1.21,1.21,0,0,0,1.18-1.22v-2.71H69c0,.26,0,.66-.47.66h-2.6v-1.29h4"/><path class="cls-3" d="M71.24,145.36H73.6V144.1H71.24Z"/><path class="cls-3" d="M78.78,146.62H76.43c-.36-.06-.59-.47-.59-1v-1.26h2.94Zm-3.88-4.88v1.07h3.88v.63H74.9V146c.08.83.51,1.38,1.31,1.38h3.52v-4.56h.82v4.56h1.06v-5.63H74.9"/><path class="cls-3" d="M86.71,142.81h4.81v.63H90.1a.47.47,0,0,1-.94,0H86.71v2.71c0,.26,0,1.11.76,1.22h1.92v-.91H88.1a.59.59,0,0,1-.47-.63v-1.42h1.29v.79H90.1v-.63c-.08-.29,1.24-.26,1.3,0v2.8h1.06v-4.56h.71v4.56h1.06v-5.63H86.71v1.07"/><path class="cls-3" d="M84.27,143.63c-.45,0-.82-.16-.82-.37s.37-.37.82-.37.82.17.82.37S84.72,143.63,84.27,143.63Zm.76-1.58h-2.5v1.48a1.22,1.22,0,0,0,1.21,1.1h2v-1.82a.89.89,0,0,0-.71-.76"/><path class="cls-3" d="M82.69,145.19v.93l3,1.25v-1l-3-1.2"/><path class="cls-3" d="M109.67,143.63c-.45,0-.82-.16-.82-.37s.37-.37.82-.37.82.17.82.37S110.12,143.63,109.67,143.63Zm.76-1.58h-2.5v1.48a1.22,1.22,0,0,0,1.21,1.1h2v-1.82a.88.88,0,0,0-.71-.76"/><path class="cls-3" d="M108.09,145.19v.93l3,1.25v-1l-3-1.2"/><path class="cls-3" d="M115.92,146.62h-2.35c-.36-.06-.59-.47-.59-1v-1.26h2.93v.16h0Zm1-3.18v-.63h1.95v-1.07H112v1.07h3.88v.63H112V146c.08.83.51,1.38,1.31,1.38h3.52v-2.8h.94c.16,0,.2-.08.24.16v.47c-.06.24-.08.39-.24.47h-.35v1h.7a.89.89,0,0,0,.71-.63v-2.55h-2"/><path class="cls-3" d="M101.29,146.62H98.93a.89.89,0,0,1-.59-1v-1.26h3Zm-3.89-4.88v1.07h3.89v.63H97.4V146c.09.83.51,1.38,1.32,1.38h3.51v-4.56h1.23l-.45.89v.63h.83c.44,0,.59.34.59,1.1,0,.53-.12.91-.53.95h-.77v.94H104c.23,0,1.31.11,1.41-.94.12-2.13.22-2.68-1.3-2.83l.23-.74H106v4.56H107v-5.63H97.4"/></svg>