<svg id="Layer_1" data-name="Layer 1" xmlns="http://www.w3.org/2000/svg" viewBox="0 0 200 200"><defs><style>.cls-1{fill:#fff;}.cls-2{fill:#144a96;}.cls-3{fill:#fed600;}</style></defs><title>upay bank</title><rect class="cls-1" width="200" height="200" rx="9.18"/><path d="M102.31,149.58c-4.89,3.12-9.67,6.29-14.59,9.24a5,5,0,0,1-6.42-1,4,4,0,0,1-1.13-4.48,32.41,32.41,0,0,0,1.28-4.73,8.37,8.37,0,0,0-1.52-6.46c-.29-.41-.6-.81-.85-1.25-2.09-3.73-1-7.24,3.07-8.5a20.22,20.22,0,0,1,17.77,2.44c.68.45,1.33,1,2,1.45,0,0,.12,0,.41-.11,0-1,0-2.15,0-3.26,0-1.39.62-2.14,2-2.14H120.5c1.34,0,1.93.67,1.93,2q0,14.25,0,28.49c0,1.44-.59,2.08-2,2.07-5.69-.05-5.26.59-5.25-4.94q0-9.12,0-18.24c0-2.16-.1-2.15-2.9-2.23-1.7,0-2.53.32-2.49,2.3.11,6.84,0,13.68,0,20.52,0,2.14-.43,2.57-2.52,2.58-5.17,0-5,.44-5-4.9C102.34,155.38,102.31,152.3,102.31,149.58Zm-14.93,1a3.93,3.93,0,0,0,1.15-.07A32,32,0,0,0,98.37,143c.88-1,.16-1.64-.64-2.09A18.93,18.93,0,0,0,88,138.42c-1.81,0-2.12.77-1,2.21a7.26,7.26,0,0,1,1.26,6.77C87.94,148.37,87.7,149.34,87.38,150.56Z"/><path d="M57.18,137.92c-2.94,0-5.85,0-8.76,0-1.66,0-2.41-.51-2.41-2.28,0-4.87-.07-4.87,4.84-4.87,3.87,0,7.73,0,11.59,0,1.22,0,2.53-.11,2.52-1.61s-1.26-2.12-2.69-2c-2.76.24-5.52.74-8.29.76a12.42,12.42,0,0,1-4.93-1.07c-2.54-1.1-3.08-5.11-1-6.94a2.19,2.19,0,0,1,2-.26c3.71,2.81,7.69,1.69,11.68,1.08a13.12,13.12,0,0,1,4-.14c4.56.74,6.77,4.48,5.48,9-.08.3-.15.6-.27,1.14h3.27c1.44,0,2.22.57,2.21,2.15-.07,5.47.53,5-4.81,5-1.9,0-3.8.05-5.7,0-1.08,0-1.58.23-1.63,1.45-.21,4.78.47,5.4,5.13,4.34,1.3-.29,2.58-.66,3.88-.88a2.37,2.37,0,0,1,3,2.1,39.55,39.55,0,0,1-.18,8.71c-1,5.15-4.87,7.82-9.57,9.27a19.75,19.75,0,0,1-11.42-.12c-5.5-1.58-9.09-6.56-9.39-13.13a51.86,51.86,0,0,1,.38-7.36,2,2,0,0,1,2.48-2c.44,0,.89,0,1.33,0,2.55,0,2.76.34,2.89,2.81a67.31,67.31,0,0,0,.79,7.9,5.41,5.41,0,0,0,5.48,4.85,30.35,30.35,0,0,0,6.52-.49,4.82,4.82,0,0,0,2.65-1.7,10.53,10.53,0,0,0,1.2-3,22.35,22.35,0,0,0-2.71-.07c-1.57.13-3.13.57-4.7.56-3.32,0-4.53-1.34-4.57-4.67,0-2.66,0-5.32,0-8A2.91,2.91,0,0,0,57.18,137.92Z"/><path d="M154.29,145.83c0,4,0,8.1,0,12.16,0,3.91-2.87,6.25-6.56,5.1-5.61-1.76-11.31-1.89-17.09-1.57-4.1.23-5.49-1.14-5.54-5.28v-.38c0-5.62,0-5.57,5.26-7.64,1-.39,2.54-1.38,2.53-2.07,0-1.64-1.76-1.62-3.07-1.79-3.62-.47-4.62-1.54-4.7-5.14,0-2.09,0-4.18,0-6.27,0-1.53.74-2.16,2.23-2.16q12.35,0,24.7,0c1.62,0,2.27.71,2.25,2.31C154.26,137.34,154.29,141.58,154.29,145.83Zm-14.46-7.9c-1.52,0-3-.05-4.55,0a4.84,4.84,0,0,0-1.43.58c.27.47.43,1.15.84,1.38a23.24,23.24,0,0,0,3,1.21c4.07,1.61,4.74,6,1.26,8.7-1,.8-2.34,1.25-3.42,2a7.86,7.86,0,0,0-1.36,1.64,6.35,6.35,0,0,0,1.87.84c3.13.32,6.28.49,9.42.78,1.28.12,1.76-.43,1.7-1.62s-.19-2.52-.23-3.78c-.09-3-.13-6.07-.21-9.11-.05-1.71-.78-2.74-2.67-2.66C142.62,138,141.22,137.93,139.83,137.93Z"/><path d="M138.93,174a4.9,4.9,0,0,1-5-4.9,4.82,4.82,0,0,1,4.91-4.93,4.89,4.89,0,0,1,5,4.88A5,5,0,0,1,138.93,174Z"/><path class="cls-2" d="M143.06,96.42l0,0a51.64,51.64,0,0,1-16.64,13.84c-7,3.35-15.19,4.57-22.94,4.72a11,11,0,0,0-2.81-21.07C115,93.42,126.61,83,127.18,70c0-.33,0-.66,0-1a19.82,19.82,0,0,0-.1-2c0-1.16,0-2.48.1-3.58.19-2.7,3.91-4.58,3.91-4.58h15c3.31.51,4.32,4.07,4.32,4.07A56.28,56.28,0,0,1,143.06,96.42Z"/><circle class="cls-3" cx="60.79" cy="38.69" r="12.69" transform="translate(8.34 88.09) rotate(-75.77)"/><circle class="cls-2" cx="138" cy="38.69" r="12.69" transform="translate(68.22 163.87) rotate(-76.52)"/><path class="cls-3" d="M110.12,104.86A11,11,0,0,1,103.46,115c-3.19.06-6.3-.06-9.22-.28a111.3,111.3,0,0,1-18.65-3h0A50.71,50.71,0,0,1,51.43,89.31h0c0-.09-.09-.17-.13-.26C47.48,81.59,48.14,63,48.14,63c.08-3,3.78-4.2,3.78-4.2h15c2.9.32,4.35,3.78,4.35,3.78l.63,4.61a15.83,15.83,0,0,0,.67,7.36h0a23.11,23.11,0,0,0,2,5.24l0,0a.17.17,0,0,1,0,.05,0,0,0,0,1,0,0c4.25,7.9,13,13.47,23.24,14,.56,0,1.12,0,1.68,0l1.12,0A11,11,0,0,1,110.12,104.86Z"/></svg>