<svg xmlns="http://www.w3.org/2000/svg" viewBox="0 0 150 150"><defs><style>.cls-1{fill:#fff;}.cls-2{fill:#eb6b00;}</style></defs><g id="Layer_2" data-name="Layer 2"><g id="Layer_1-2" data-name="Layer 1"><rect class="cls-1" width="150" height="150" rx="22.49"/><path class="cls-2" d="M19.5,119.1V30.9a3.47,3.47,0,0,0,.19-.6,13,13,0,0,1,5.36-8.54A15.43,15.43,0,0,1,31,19.39h88c.9.24,1.82.42,2.7.72a13,13,0,0,1,8.79,12.76v84.26c0,.29,0,.58,0,.86a13,13,0,0,1-5.16,10,15.12,15.12,0,0,1-6.32,2.65H31a2.51,2.51,0,0,0-.5-.18,12.84,12.84,0,0,1-8.56-5.29A15.36,15.36,0,0,1,19.5,119.1ZM124,75V33.43c0-4.93-2.57-7.52-7.46-7.52H59.44c-4.83,0-7.42,2.6-7.42,7.44v83.28c0,4.85,2.58,7.46,7.4,7.46h57.21c4.75,0,7.36-2.62,7.37-7.39ZM34.13,124c-.09-.24-.15-.48-.25-.69a13.67,13.67,0,0,1-1.38-6.19q0-42.14,0-84.28a26.43,26.43,0,0,1,.93-5.3A7.74,7.74,0,0,1,34.17,26c-5-.52-8.17,2.28-8.17,7.24v83.41C26,121.73,28.94,124.44,34.13,124Zm13.11-98c-4.7-.76-8.22,2.2-8.22,6.81q0,15.27,0,30.52V117c0,4.7,3.51,7.7,8.23,6.92-2-3.26-1.72-6.88-1.72-10.45q0-38.44,0-76.89C45.52,33,45.18,29.34,47.24,26.05Z"/><path class="cls-2" d="M88,48.59A94.33,94.33,0,0,0,107.28,75,94.67,94.67,0,0,0,88,101.4,95.07,95.07,0,0,0,68.73,75,94.52,94.52,0,0,0,88,48.59ZM78.17,75c3.3,4.28,6.63,8.61,9.83,12.78L97.85,75c-3.28-4.25-6.61-8.58-9.84-12.78Z"/><path class="cls-2" d="M111.06,32.47h6.37v9.64h-6.37Z"/><path class="cls-2" d="M58.58,107.85H65v9.66H58.58Z"/><path class="cls-2" d="M111,55.18V48.79h6.38v6.39Z"/><path class="cls-2" d="M65,94.85v6.37H58.58V94.85Z"/></g></g></svg>