<svg id="Layer_1" data-name="Layer 1" xmlns="http://www.w3.org/2000/svg" viewBox="0 0 100 100"><defs><style>.cls-1{fill:#fff;}.cls-2{fill:#ec6b00;}</style></defs><path class="cls-1" d="M84.85,100H15.15A15,15,0,0,1,.1,85V15.25A15,15,0,0,1,15.15.2h69.7A15,15,0,0,1,99.9,15.25V85A15,15,0,0,1,84.85,100Z"/><path class="cls-2" d="M69.73,54.65c2.51-2.2,5-4.71,7.23-6.91A30,30,0,0,0,80.1,44.6c2.51-2.51,6.28-3.14,9.74,0,2.51,2.2,2.51,6.28.31,9.11C85.44,59.36,80.41,65.33,75.7,71a14.19,14.19,0,0,1-11.31,5H43a8.3,8.3,0,0,0-6,2.82v.63a6.14,6.14,0,0,1-1.57,5Q31.71,88.27,28,92c-1.26,1.25-1.89.94-3.14,0-6-6-11.94-12.25-18.23-18.22-1.25-1.26-1.25-1.89,0-3.15,2.52-2.51,5-5,7.23-7.54a5.22,5.22,0,0,1,4.08-1.57c.32,0,.63-.31.95-.62,5.65-10.06,17.9-11.94,26.39-8.8a1.89,1.89,0,0,0,1.25.31H63.13C66.27,52.45,68.47,53.08,69.73,54.65ZM34.86,76.33c.31,0,.31,0,.31-.31l.32-.32c2.2-2.51,4.71-3.14,7.85-3.14H64.08c3.77,0,6.91-1.26,9.11-4.4.62-.63.94-1.26,1.57-1.88,4.08-5,8.48-10.06,12.56-15.08A3.42,3.42,0,0,0,87,46.48a3.17,3.17,0,0,0-4.71.32c-3.46,3.77-7.23,7.22-10.68,11a1.16,1.16,0,0,0-.32,1c.32,3.45-2.51,7.22-7.54,7.22H50.57A1.67,1.67,0,0,1,49,64.39a1.48,1.48,0,0,1,1.57-1.57H64.08a3.23,3.23,0,0,0,3.45-3.77,3.42,3.42,0,0,0-3.45-2.83H46.17a2.37,2.37,0,0,1-1.57-.31,20.43,20.43,0,0,0-9.74-1.26A16.7,16.7,0,0,0,22,62.51a1.4,1.4,0,0,0,0,1.57l5.34,5.34A81.9,81.9,0,0,1,34.86,76.33ZM10,72.25c5.65,5.65,11.31,11,17,16.65,2.2-2.2,4.4-4.4,6.6-6.92.63-.62.63-1.57-.31-2.51L19.46,65.65c-.94-.94-1.88-.94-2.51,0l-2.51,2.51A18.24,18.24,0,0,0,10,72.25Z"/><path class="cls-2" d="M74.44,25.44A18.54,18.54,0,1,1,55.91,6.9,18.77,18.77,0,0,1,74.44,25.44Zm-33.61,0A14.88,14.88,0,0,0,55.91,40.52,15.29,15.29,0,0,0,71,25.44,15.29,15.29,0,0,0,55.91,10.36,15.08,15.08,0,0,0,40.83,25.44Z"/><path class="cls-2" d="M60.62,20.09c0,.95-.63,1.26-1.26,1.58-.31.31-1.25,0-1.57,0-.63,0-.63-.32-.94-.63-.63-.32-1.57-.63-2.2,0A1.39,1.39,0,0,0,54,22.92a1.61,1.61,0,0,0,1.57,1.26c2.2,0,3.77,1.26,4.72,3.45A4.5,4.5,0,0,1,58.73,33a3.2,3.2,0,0,0-1.57,3.14,1.68,1.68,0,0,1-1.57,1.57A1.49,1.49,0,0,1,54,36.12c.32-1.57-.31-2.52-1.88-3.14-.63-.32-1-.95-1.26-1.26a1.56,1.56,0,0,1,2.2-2.2l1.26,1.26a2,2,0,0,0,1.88,0c.63-.32.63-1,.63-1.89a3.14,3.14,0,0,0-1.57-1.26c-2.51-.31-4.4-1.57-4.71-4.08-.63-2.2.62-4.4,2.82-5.65.32,0,.32-.63.63-.95V15.7a1.67,1.67,0,0,1,1.57-1.57c.95,0,1.89.62,1.57,1.57-.31,1.57.32,2.2,1.57,2.82A2,2,0,0,1,60.62,20.09Z"/></svg>