<svg id="Layer_1" data-name="Layer 1" xmlns="http://www.w3.org/2000/svg" viewBox="0 0 100 100"><defs><style>.cls-1{fill:#fff;}.cls-2{fill:#ec6b00;}</style></defs><path class="cls-1" d="M84.85,100H15.15A15,15,0,0,1,.1,85V15.25A15,15,0,0,1,15.15.2h69.7A15,15,0,0,1,99.9,15.25V85A15,15,0,0,1,84.85,100Z"/><path class="cls-2" d="M69,14.42h5.85v5.85h3.62a8.77,8.77,0,0,1,6.7,3.35A11,11,0,0,1,86.8,27.8v53A8.45,8.45,0,0,1,78.16,88h-56a8.81,8.81,0,0,1-8.92-8.92V28.91a6.14,6.14,0,0,1,.28-2.23A8.5,8.5,0,0,1,22.12,20h3.07V14.14H31v5.57H69ZM18.13,41.08V79.84c0,2,1.15,3.16,3.44,3.16H78.71q3.45,0,3.45-3.44V40.79C60.62,41.08,39.38,41.08,18.13,41.08ZM69.53,25H30.47v5.74h-6V25H21a3,3,0,0,0-3.16,3.16v6.89h64V27.87a2.57,2.57,0,0,0-2.58-2.58h-4V31h-6A42,42,0,0,0,69.53,25Z"/><path class="cls-2" d="M31.6,62.64c1.39-1.39,2.51-2.78,3.9-4.18,3.35,3.35,7,6.69,10.32,10,6.13-7,12.26-13.94,18.68-20.91,1.39,1.39,2.78,2.51,4.18,3.9C61.15,59.86,53.62,68.22,46.1,76.86,41.36,71.84,36.34,67.11,31.6,62.64Z"/></svg>