<svg id="Layer_1" data-name="Layer 1" xmlns="http://www.w3.org/2000/svg" viewBox="0 0 50 50"><defs><style>.cls-1{fill:#fff;}</style></defs><title>Live Chat</title><path class="cls-1" d="M45.59,5.22H20.13a2.64,2.64,0,0,0-2.64,2.63v9.91H4.38A2.64,2.64,0,0,0,1.74,20.4V37.13a2.66,2.66,0,0,0,2.64,2.64h5l-.12,4.11a.9.9,0,0,0,.43.8,1,1,0,0,0,.91,0l8.88-4.94H30.05a2.64,2.64,0,0,0,2.64-2.63V29.24h1.52l7,4.95a1,1,0,0,0,.94.06.88.88,0,0,0,.51-.8V29.24h2.93a2.64,2.64,0,0,0,2.64-2.64h0V7.85a2.64,2.64,0,0,0-2.64-2.63ZM30.88,37.13a.83.83,0,0,1-.83.82H19.25a.88.88,0,0,0-.44.12l-7.68,4.26.1-3.45a.85.85,0,0,0-.27-.65.88.88,0,0,0-.65-.28H4.38a.82.82,0,0,1-.82-.82V20.4a.83.83,0,0,1,.82-.83H17.49v7a2.64,2.64,0,0,0,2.64,2.64H30.88ZM46.42,26.6a.83.83,0,0,1-.83.82H41.76a.91.91,0,0,0-.91.91V31.7L35,27.59a.92.92,0,0,0-.52-.17H20.13a.82.82,0,0,1-.82-.82h0V7.85a.81.81,0,0,1,.8-.84H45.59a.83.83,0,0,1,.83.82Z"/><path class="cls-1" d="M25.87,15.49a1.88,1.88,0,1,0,1.88,1.88h0a1.88,1.88,0,0,0-1.88-1.88Z"/><path class="cls-1" d="M33.38,15.49a1.88,1.88,0,1,0,0,3.76,1.86,1.86,0,0,0,1.88-1.87h0a1.87,1.87,0,0,0-1.87-1.88Z"/><path class="cls-1" d="M40.89,15.49a1.88,1.88,0,1,0,1.87,1.89h0a1.88,1.88,0,0,0-1.87-1.88Z"/></svg>